<?xml version="1.0" standalone="no"?>
<!DOCTYPE svg PUBLIC "-//W3C//DTD SVG 20010904//EN"
 "http://www.w3.org/TR/2001/REC-SVG-20010904/DTD/svg10.dtd">
<svg version="1.0" xmlns="http://www.w3.org/2000/svg"
 width="1931.000000pt" height="653.000000pt" viewBox="0 0 1931.000000 653.000000"
 preserveAspectRatio="xMidYMid meet">

<g transform="translate(0.000000,653.000000) scale(0.100000,-0.100000)"
fill="#000000" stroke="none">
<path d="M4915 5581 c0 -100 -2 -110 -32 -172 -20 -39 -56 -89 -89 -122 l-55
-55 10 -58 c6 -32 11 -83 11 -113 0 -62 0 -61 56 -114 l41 -38 -10 57 c-16 86
0 144 71 252 36 55 65 111 72 142 19 78 9 187 -24 253 -45 93 -51 89 -51 -32z"/>
<path d="M5031 4490 c44 -146 110 -357 147 -470 64 -197 67 -209 67 -305 0
-92 -3 -106 -32 -167 -56 -118 -138 -182 -293 -228 -41 -12 -76 -23 -78 -25
-1 -1 12 -35 29 -76 54 -125 98 -269 111 -356 l12 -83 33 0 c40 0 40 -7 -18
174 -22 66 -39 136 -39 155 0 58 30 95 107 132 138 65 206 137 239 254 27 96
16 178 -59 415 -36 113 -99 316 -141 453 -75 243 -104 318 -144 367 -16 19 -1
-41 59 -240z"/>
<path d="M787 4383 c18 -2 50 -2 70 0 21 2 7 4 -32 4 -38 0 -55 -2 -38 -4z"/>
<path d="M661 4044 c19 -23 94 -64 147 -81 32 -10 140 -19 352 -27 168 -7 308
-11 313 -9 4 2 7 22 7 43 l0 38 -82 6 c-46 3 -218 10 -384 16 -165 6 -315 15
-333 20 -29 8 -31 7 -20 -6z"/>
<path d="M3070 3925 c0 -12 -14 -15 -70 -15 -56 0 -70 -3 -70 -15 0 -11 -12
-15 -45 -15 -25 0 -45 -4 -45 -10 0 -5 -18 -10 -40 -10 -29 0 -40 -4 -40 -15
0 -10 -10 -15 -30 -15 -20 0 -30 -5 -30 -15 0 -9 -9 -15 -25 -15 -16 0 -25 -6
-25 -15 0 -10 -10 -15 -30 -15 -20 0 -30 -5 -30 -15 0 -8 -7 -15 -15 -15 -8 0
-15 -4 -15 -10 0 -5 -11 -10 -25 -10 -16 0 -25 -6 -25 -15 0 -8 -7 -15 -15
-15 -8 0 -15 -7 -15 -15 0 -10 -10 -15 -30 -15 -20 0 -30 -5 -30 -15 0 -8 -7
-15 -15 -15 -8 0 -15 -5 -15 -11 0 -14 -25 -39 -39 -39 -6 0 -11 -7 -11 -15 0
-8 -7 -15 -15 -15 -8 0 -15 -7 -15 -15 0 -8 -7 -15 -15 -15 -8 0 -15 -7 -15
-15 0 -8 -7 -15 -15 -15 -8 0 -15 -7 -15 -15 0 -8 -4 -15 -10 -15 -5 0 -10 -7
-10 -15 0 -8 -7 -15 -15 -15 -8 0 -15 -4 -15 -10 0 -5 -7 -10 -15 -10 -10 0
-15 -10 -15 -30 0 -20 -5 -30 -15 -30 -8 0 -15 -7 -15 -15 0 -8 -7 -15 -15
-15 -9 0 -15 -9 -15 -25 0 -16 -6 -25 -15 -25 -8 0 -15 -7 -15 -15 0 -8 -4
-15 -10 -15 -5 0 -10 -13 -10 -30 0 -20 -5 -30 -15 -30 -9 0 -15 -9 -15 -25 0
-16 -6 -25 -15 -25 -11 0 -15 -12 -15 -45 0 -33 -4 -45 -15 -45 -10 0 -15 -10
-15 -30 0 -20 -5 -30 -15 -30 -12 0 -15 -13 -15 -55 0 -30 -4 -55 -10 -55 -6
0 -10 -30 -10 -70 0 -56 -3 -70 -15 -70 -13 0 -15 -28 -15 -195 0 -167 2 -195
15 -195 12 0 15 -14 15 -70 0 -40 4 -70 10 -70 6 0 10 -25 10 -55 0 -42 3 -55
15 -55 11 0 15 -12 15 -45 0 -33 4 -45 15 -45 10 0 15 -10 15 -30 0 -20 5 -30
15 -30 9 0 15 -9 15 -25 0 -16 6 -25 15 -25 10 0 15 -10 15 -30 0 -16 5 -30
10 -30 6 0 10 -11 10 -25 0 -16 6 -25 15 -25 8 0 15 -7 15 -15 0 -8 7 -15 15
-15 10 0 15 -10 15 -30 0 -20 5 -30 15 -30 8 0 15 -7 15 -15 0 -8 7 -15 15
-15 8 0 15 -4 15 -10 0 -5 7 -10 15 -10 8 0 15 -7 15 -15 0 -8 5 -15 10 -15 6
0 10 -7 10 -15 0 -26 70 -95 96 -95 15 0 24 -6 24 -15 0 -8 5 -15 10 -15 6 0
10 -7 10 -15 0 -8 7 -15 15 -15 8 0 15 -7 15 -15 0 -8 7 -15 15 -15 8 0 15 -7
15 -15 0 -10 10 -15 30 -15 17 0 30 -5 30 -11 0 -19 28 -39 54 -39 16 0 26 -6
26 -15 0 -10 10 -15 30 -15 20 0 30 -5 30 -15 0 -9 9 -15 25 -15 16 0 25 -6
25 -15 0 -10 10 -15 30 -15 20 0 30 -5 30 -15 0 -11 11 -15 40 -15 22 0 40 -4
40 -10 0 -6 27 -10 60 -10 47 0 60 -3 60 -15 0 -12 14 -15 70 -15 56 0 70 -3
70 -15 0 -13 28 -15 195 -15 167 0 195 2 195 15 0 12 16 15 85 15 69 0 85 3
85 15 0 12 13 15 55 15 30 0 55 5 55 10 0 6 20 10 45 10 33 0 45 4 45 15 0 11
11 15 40 15 29 0 40 4 40 15 0 10 10 15 30 15 20 0 30 5 30 15 0 9 9 15 25 15
16 0 25 6 25 15 0 10 10 15 30 15 17 0 30 5 30 10 0 6 7 10 15 10 8 0 15 7 15
15 0 9 9 15 25 15 16 0 25 6 25 15 0 8 7 15 15 15 8 0 15 7 15 15 0 10 10 15
30 15 20 0 30 5 30 15 0 8 7 15 15 15 8 0 15 5 15 11 0 14 25 39 39 39 6 0 11
7 11 15 0 8 7 15 15 15 10 0 15 10 15 30 0 20 5 30 15 30 9 0 15 9 15 25 0 16
6 25 15 25 12 0 15 19 15 115 0 96 -3 115 -15 115 -9 0 -15 9 -15 25 0 16 -6
25 -15 25 -8 0 -15 5 -15 11 0 5 6 7 13 3 20 -13 -13 27 -58 68 -22 21 -46 38
-52 38 -7 0 -13 7 -13 15 0 11 -12 15 -45 15 -25 0 -45 5 -45 10 0 6 -35 10
-85 10 -50 0 -85 -4 -85 -10 0 -5 -18 -10 -40 -10 -29 0 -40 -4 -40 -15 0 -8
-7 -15 -15 -15 -8 0 -15 -7 -15 -15 0 -8 -7 -15 -15 -15 -8 0 -15 -7 -15 -15
0 -9 -9 -15 -25 -15 -16 0 -25 -6 -25 -15 0 -8 -7 -15 -15 -15 -8 0 -15 -7
-15 -15 0 -8 -7 -15 -15 -15 -8 0 -15 -4 -15 -10 0 -5 -13 -10 -30 -10 -20 0
-30 -5 -30 -15 0 -11 -11 -15 -40 -15 -29 0 -40 -4 -40 -15 0 -11 -11 -15 -40
-15 -29 0 -40 -4 -40 -15 0 -12 -13 -15 -60 -15 -47 0 -60 -3 -60 -15 0 -13
-22 -15 -140 -15 -118 0 -140 2 -140 15 0 11 -12 15 -50 15 -36 0 -52 4 -56
15 -4 9 -19 15 -35 15 -19 0 -29 5 -29 15 0 9 -9 15 -25 15 -16 0 -25 6 -25
15 0 8 -7 15 -15 15 -8 0 -15 5 -15 10 0 6 -13 10 -30 10 -20 0 -30 5 -30 15
0 8 -4 15 -10 15 -5 0 -10 7 -10 15 0 8 -7 15 -15 15 -8 0 -15 7 -15 15 0 8
-7 15 -15 15 -8 0 -15 7 -15 15 0 8 -7 15 -15 15 -8 0 -15 7 -15 15 0 8 -7 15
-15 15 -8 0 -15 5 -15 10 0 6 -7 10 -15 10 -10 0 -15 10 -15 30 0 17 -4 30
-10 30 -5 0 -10 14 -10 30 0 20 -5 30 -15 30 -11 0 -15 11 -15 40 0 29 -4 40
-15 40 -10 0 -15 10 -15 30 l0 30 915 0 c603 0 915 3 915 10 0 6 11 10 25 10
16 0 25 6 25 15 0 8 7 15 15 15 8 0 15 7 15 15 0 8 7 15 15 15 8 0 15 7 15 15
0 8 7 15 15 15 10 0 15 10 15 30 0 20 5 30 15 30 11 0 15 11 15 40 0 22 5 40
10 40 6 0 10 58 10 155 0 97 -4 155 -10 155 -5 0 -10 18 -10 40 0 29 -4 40
-15 40 -10 0 -15 10 -15 30 0 20 -5 30 -15 30 -11 0 -15 11 -15 40 0 38 -13
54 -23 28 -3 -7 -6 6 -6 30 -1 30 -5 42 -16 42 -8 0 -15 7 -15 15 0 8 -4 15
-10 15 -5 0 -10 11 -10 25 0 16 -6 25 -15 25 -10 0 -15 10 -15 30 0 20 -5 30
-15 30 -8 0 -15 7 -15 15 0 8 -7 15 -15 15 -8 0 -15 7 -15 15 0 8 -7 15 -15
15 -9 0 -15 9 -15 25 0 14 -4 25 -10 25 -5 0 -10 7 -10 15 0 8 -7 15 -15 15
-8 0 -15 7 -15 15 0 8 -7 15 -15 15 -8 0 -15 7 -15 15 0 8 -7 15 -15 15 -8 0
-15 7 -15 15 0 8 -7 15 -15 15 -8 0 -15 5 -15 10 0 6 -7 10 -15 10 -8 0 -15 7
-15 15 0 8 -4 15 -10 15 -5 0 -10 6 -10 13 0 6 -20 21 -45 32 -25 11 -45 25
-45 32 0 7 -7 13 -15 13 -8 0 -15 5 -15 10 0 6 -11 10 -25 10 -16 0 -25 6 -25
15 0 9 -9 15 -25 15 -14 0 -28 7 -31 15 -4 8 -17 15 -30 15 -15 0 -24 6 -24
15 0 10 -10 15 -30 15 -20 0 -30 5 -30 15 0 11 -12 15 -45 15 -25 0 -45 5 -45
10 0 6 -18 10 -40 10 -29 0 -40 4 -40 15 0 12 -14 15 -65 15 -49 0 -67 4 -71
15 -5 13 -39 15 -215 15 -179 0 -209 -2 -209 -15z m250 -670 c0 -12 16 -15 85
-15 69 0 85 -3 85 -15 0 -11 11 -15 40 -15 29 0 40 -4 40 -15 0 -10 10 -15 30
-15 20 0 30 -5 30 -15 0 -8 7 -15 15 -15 8 0 15 -4 15 -10 0 -5 11 -10 25 -10
16 0 25 -6 25 -15 0 -8 7 -15 15 -15 8 0 15 -7 15 -15 0 -8 7 -15 15 -15 10 0
15 -10 15 -30 0 -20 5 -30 15 -30 8 0 15 -7 15 -15 0 -8 7 -15 15 -15 8 0 15
-4 15 -10 0 -5 7 -10 15 -10 8 0 15 -7 15 -15 0 -13 -71 -15 -580 -15 l-580 0
0 25 c0 16 6 25 15 25 8 0 15 7 15 15 0 8 7 15 15 15 8 0 15 7 15 15 0 8 7 15
15 15 8 0 15 7 15 15 0 8 7 15 15 15 8 0 15 7 15 15 0 9 9 15 25 15 16 0 25 6
25 15 0 8 7 15 15 15 8 0 15 5 15 10 0 6 14 10 30 10 20 0 30 5 30 15 0 9 9
15 25 15 16 0 25 6 25 15 0 11 12 15 45 15 33 0 45 4 45 15 0 12 14 15 70 15
56 0 70 3 70 15 0 11 11 15 40 15 29 0 40 -4 40 -15z"/>
<path d="M12810 3500 l0 -380 45 32 45 32 0 290 c0 169 -4 307 -10 328 -10 34
-50 78 -71 78 -5 0 -9 -171 -9 -380z"/>
<path d="M15494 3628 c23 -76 29 -118 29 -215 l0 -113 44 0 45 0 -7 53 c-9 72
-32 153 -60 207 -27 51 -60 96 -51 68z"/>
<path d="M1860 3569 c0 -5 5 -7 10 -4 6 3 10 8 10 11 0 2 -4 4 -10 4 -5 0 -10
-5 -10 -11z"/>
<path d="M1830 3539 c0 -5 5 -7 10 -4 6 3 10 8 10 11 0 2 -4 4 -10 4 -5 0 -10
-5 -10 -11z"/>
<path d="M8291 3270 c12 -30 26 -73 32 -95 12 -49 18 -57 37 -45 13 8 9 21
-22 83 -51 99 -74 128 -47 57z"/>
<path d="M18591 2695 c33 -81 69 -213 84 -315 11 -70 15 -193 15 -462 l0 -367
-30 -76 c-74 -185 -143 -285 -262 -380 -98 -78 -266 -163 -393 -200 -316 -91
-692 -68 -963 60 -89 42 -85 31 11 -29 205 -128 453 -185 742 -173 307 14 569
116 758 296 102 97 197 279 219 419 16 102 4 717 -16 819 -31 158 -108 358
-167 433 -18 24 -18 23 2 -25z"/>
<path d="M16391 1337 l-1 -467 -1407 0 c-972 0 -1419 -3 -1443 -11 -19 -5 -89
-13 -156 -16 -192 -9 -340 20 -496 97 l-78 39 0 -55 0 -54 -535 0 c-294 0
-535 -4 -535 -9 0 -20 51 -61 89 -71 29 -8 192 -10 529 -8 479 3 488 3 540 26
70 29 110 28 228 -9 143 -44 291 -57 442 -39 93 11 392 15 1472 20 1269 5
1358 6 1383 22 49 33 51 46 57 318 4 205 9 261 21 286 15 29 15 34 -1 65 -26
50 -80 205 -95 274 -11 53 -13 6 -14 -408z"/>
<path d="M4816 1668 c-2 -7 -8 -40 -15 -73 -16 -90 -82 -215 -153 -291 -117
-124 -294 -253 -475 -344 -376 -189 -768 -237 -1213 -149 -147 29 -328 91
-453 153 -59 30 -107 53 -107 51 0 -1 35 -25 78 -53 194 -127 426 -213 712
-264 119 -21 490 -18 615 6 291 54 584 194 827 395 126 104 193 197 249 347
27 71 70 121 117 134 23 6 204 10 460 10 460 0 433 -4 411 59 l-11 31 -519 0
c-407 0 -520 -3 -523 -12z"/>
<path d="M8110 1184 c-149 -155 -365 -264 -624 -316 -95 -20 -143 -23 -331
-23 -188 0 -236 3 -330 22 -138 28 -273 72 -379 122 -89 43 -72 23 36 -41 162
-96 379 -166 584 -189 151 -16 419 -6 549 21 199 42 350 109 493 218 87 67
131 92 163 92 19 0 12 11 -42 68 -35 37 -66 68 -69 70 -3 1 -26 -19 -50 -44z"/>
<path d="M9867 1164 c-105 -117 -318 -242 -482 -283 -284 -72 -606 -49 -842
60 -46 21 -83 36 -83 34 0 -2 31 -24 68 -49 176 -117 390 -176 637 -176 285 0
491 67 709 232 101 76 114 83 156 83 l45 0 -45 38 c-25 21 -61 55 -80 76 l-35
39 -48 -54z"/>
<path d="M11515 1049 c-207 -149 -456 -217 -759 -206 -202 7 -352 40 -489 109
-78 39 -64 20 26 -36 179 -112 381 -165 627 -166 218 0 380 35 563 122 l107
52 0 88 c0 48 -1 88 -2 87 -2 0 -34 -23 -73 -50z"/>
</g>
</svg>
